<?xml version="1.0" standalone="no"?><svg xmlns:xlink="http://www.w3.org/1999/xlink" xmlns="http://www.w3.org/2000/svg" viewBox="0 0 4100 2236.3819626690924" preserveAspectRatio="xMaxYMax slice"><g transform="scale(6.299667500476317)"><rect x="0" y="0" width="650.8333333333333" height="355" fill="#ffffff"/><rect x="0" y="0" width="59.17" height="59.17" fill="#9cacf2"/><polygon points="0,0 59.17,59.17 0,59.17" fill="#6f88ec"/><rect x="59.166666666666664" y="0" width="59.166666666666664" height="59.166666666666664" fill="#ffffff"/><rect x="59.17" y="0" width="29.58" height="29.58" fill="#3355e4"/><path d="M 59.17 29.58 A 29.58 29.58 0 0 1 88.75 0 L 88.75 7.395 A 22.185 22.185 0 0 0 66.565 29.58" fill="#b9c5f6"/><rect x="88.75" y="0" width="29.58" height="29.58" fill="#f4eff6"/><path d="M 88.75 0 A 29.58 29.58 0 0 1 118.33 29.58 L 110.935 29.58 A 22.185 22.185 0 0 0 88.75 7.395" fill="#dfd0e4"/><rect x="59.17" y="29.58" width="29.58" height="29.58" fill="#b38fbf"/><path d="M 59.17 29.58 A 29.58 29.58 0 0 0 88.75 59.16 L 88.75 51.765 A 22.185 22.185 0 0 1 66.565 29.58" fill="#d4dbf9"/><rect x="88.75" y="29.58" width="29.58" height="29.58" fill="#f3edf5"/><path d="M 88.75 59.16 A 29.58 29.58 0 0 0 118.33 29.58 L 110.935 29.58 A 22.185 22.185 0 0 1 88.75 51.765" fill="#dfd0e4"/><rect x="118.33" y="0" width="59.17" height="59.17" fill="#8a9ef0"/><path d="M 118.33 59.17 A 59.17 59.17 0 0 1  177.5 0 L 118.33 59.17 A 59.17 59.17 0 0 0 177.5 0" fill="#f7f8fe"/><rect x="177.5" y="0" width="59.166666666666664" height="59.166666666666664" fill="#ffffff"/><rect x="177.5" y="0" width="29.58" height="29.58" fill="#7f95ee"/><polygon points="207.07999999999998,0 207.07999999999998,29.58 177.5,29.58" fill="#92a4f1"/><rect x="207.08" y="0" width="29.58" height="29.58" fill="#8da1f0"/><polygon points="207.08,0 236.66000000000003,29.58 207.08,29.58" fill="#e5e9fc"/><rect x="177.5" y="29.58" width="29.58" height="29.58" fill="#a982b8"/><polygon points="177.5,29.58 207.07999999999998,29.58 177.5,59.16" fill="#cfd7f9"/><rect x="207.08" y="29.58" width="29.58" height="29.58" fill="#e1d4e6"/><polygon points="207.08,29.58 236.66000000000003,29.58 236.66000000000003,59.16" fill="#f2ecf4"/><rect x="236.67" y="0" width="59.17" height="59.17" fill="#c7add0"/><polygon points="236.67,0 295.84,0 295.84,59.17" fill="#a67eb5"/><rect x="295.83" y="0" width="59.17" height="59.17" fill="#ae89bc"/><path d="M 295.83 59.17 A 59.17 59.17 0 0 1  355 0 L 355 59.17" fill="#a5b4f3"/><rect x="355" y="0" width="59.17" height="59.17" fill="#aa83b8"/><polygon points="414.17,0 414.17,59.17 355,59.17" fill="#d2daf9"/><rect x="414.16666666666663" y="0" width="59.166666666666664" height="59.166666666666664" fill="#ffffff"/><rect x="414.17" y="0" width="29.58" height="29.58" fill="#fbf9fc"/><polygon points="443.75,0 443.75,29.58 414.17,29.58" fill="#f6f2f8"/><rect x="443.75" y="0" width="29.58" height="29.58" fill="#ac86ba"/><polygon points="443.75,0 473.33,29.58 443.75,29.58" fill="#768ded"/><rect x="414.17" y="29.58" width="29.58" height="29.58" fill="#b08cbe"/><polygon points="414.17,29.58 443.75,29.58 414.17,59.16" fill="#9eaef2"/><rect x="443.75" y="29.58" width="29.58" height="29.58" fill="#ede4f0"/><polygon points="443.75,29.58 473.33,29.58 473.33,59.16" fill="#cdd6f9"/><rect x="473.33" y="0" width="59.17" height="59.17" fill="#b1bef5"/><rect x="473.33" y="0" width="59.17" height="59.17" fill="#c2cdf7"/><rect x="532.5" y="0" width="59.166666666666664" height="59.166666666666664" fill="#ffffff"/><rect x="532.5" y="0" width="29.58" height="29.58" fill="#dccce2"/><path d="M 532.5 29.58 A 29.58 29.58 0 0 1  562.08 0 L 562.08 29.58" fill="#e5d9e9"/><rect x="562.08" y="0" width="29.58" height="29.58" fill="#cfd7f9"/><path d="M 562.08 0 A 29.58 29.58 0 0 1 591.6600000000001 29.58 L 562.08 29.58" fill="#bb9bc6"/><rect x="532.5" y="29.58" width="29.58" height="29.58" fill="#ece3ef"/><path d="M 532.5 29.58 A 29.58 29.58 0 0 0 562.08 59.16 L 562.08 29.58" fill="#d9e0fa"/><rect x="562.08" y="29.58" width="29.58" height="29.58" fill="#264be3"/><path d="M 562.08 59.16 A 29.58 29.58 0 0 0 591.6600000000001 29.58 L 562.08 29.58" fill="#aa83b8"/><rect x="591.67" y="0" width="59.17" height="59.17" fill="#e6dbea"/><polygon points="591.67,0 650.8399999999999,59.17 591.67,59.17" fill="#b3bff5"/><rect x="0" y="59.166666666666664" width="59.166666666666664" height="59.166666666666664" fill="#ffffff"/><rect x="0" y="59.17" width="29.58" height="29.58" fill="#ece3ef"/><polygon points="29.58,59.17 29.58,88.75 0,88.75" fill="#faf8fb"/><rect x="29.58" y="59.17" width="29.58" height="29.58" fill="#a0b0f3"/><polygon points="29.58,59.17 59.16,59.17 29.58,88.75" fill="#f6f1f7"/><rect x="0" y="88.75" width="29.58" height="29.58" fill="#8095ef"/><polygon points="0,88.75 29.58,88.75 29.58,118.33" fill="#fcfdff"/><rect x="29.58" y="88.75" width="29.58" height="29.58" fill="#2f52e4"/><polygon points="29.58,88.75 59.16,118.33 29.58,118.33" fill="#afbcf5"/><rect x="59.166666666666664" y="59.166666666666664" width="59.166666666666664" height="59.166666666666664" fill="#ffffff"/><rect x="59.17" y="59.17" width="29.58" height="29.58" fill="#264be3"/><path d="M 59.17 88.75 A 29.58 29.58 0 0 1 88.75 59.17 L 88.75 66.565 A 22.185 22.185 0 0 0 66.565 88.75" fill="#3557e5"/><rect x="88.75" y="59.17" width="29.58" height="29.58" fill="#b5c1f5"/><path d="M 88.75 59.17 A 29.58 29.58 0 0 1 118.33 88.75 L 110.935 88.75 A 22.185 22.185 0 0 0 88.75 66.565" fill="#3c5de6"/><rect x="59.17" y="88.75" width="29.58" height="29.58" fill="#b6c2f6"/><path d="M 59.17 88.75 A 29.58 29.58 0 0 0 88.75 118.33 L 88.75 110.935 A 22.185 22.185 0 0 1 66.565 88.75" fill="#97a8f1"/><rect x="88.75" y="88.75" width="29.58" height="29.58" fill="#2e52e4"/><path d="M 88.75 118.33 A 29.58 29.58 0 0 0 118.33 88.75 L 110.935 88.75 A 22.185 22.185 0 0 1 88.75 110.935" fill="#dbcae1"/><rect x="118.33" y="59.17" width="59.17" height="59.17" fill="#97a9f2"/><rect x="118.33" y="59.17" width="59.17" height="59.17" fill="#bc9dc7"/><rect x="177.5" y="59.166666666666664" width="59.166666666666664" height="59.166666666666664" fill="#ffffff"/><rect x="177.5" y="59.17" width="29.58" height="29.58" fill="#d5c2dc"/><circle cx="192.29" cy="73.96000000000001" r="14.79" fill="#eae0ed"/><rect x="207.08" y="59.17" width="29.58" height="29.58" fill="#e1d3e6"/><rect x="207.08" y="59.17" width="29.58" height="29.58" fill="#e3e8fb"/><rect x="177.5" y="88.75" width="29.58" height="29.58" fill="#c8d2f8"/><circle cx="192.29" cy="103.53999999999999" r="14.79" fill="#6c85ec"/><rect x="207.08" y="88.75" width="29.58" height="29.58" fill="#607bea"/><rect x="207.08" y="88.75" width="29.58" height="29.58" fill="#ae89bc"/><rect x="236.67" y="59.17" width="59.17" height="59.17" fill="#ebeefc"/><polygon points="236.67,59.17 295.84,59.17 236.67,118.34" fill="#cfb9d7"/><rect x="295.8333333333333" y="59.166666666666664" width="59.166666666666664" height="59.166666666666664" fill="#ffffff"/><rect x="295.83" y="59.17" width="29.58" height="29.58" fill="#dfe4fb"/><polygon points="325.40999999999997,59.17 325.40999999999997,88.75 295.83,88.75" fill="#e7dceb"/><rect x="325.42" y="59.17" width="29.58" height="29.58" fill="#fdfcfe"/><polygon points="325.42,59.17 355,88.75 325.42,88.75" fill="#d0bad8"/><rect x="295.83" y="88.75" width="29.58" height="29.58" fill="#e7ddeb"/><polygon points="295.83,88.75 325.40999999999997,88.75 325.40999999999997,118.33" fill="#eaeefc"/><rect x="325.42" y="88.75" width="29.58" height="29.58" fill="#efe7f2"/><polygon points="325.42,88.75 355,88.75 325.42,118.33" fill="#738aed"/><rect x="355" y="59.17" width="59.17" height="59.17" fill="#5672e9"/><polygon points="355,59.17 414.17,118.34 355,118.34" fill="#4e6ce8"/><rect x="414.17" y="59.17" width="59.17" height="59.17" fill="#a981b7"/><rect x="414.17" y="59.17" width="59.17" height="59.17" fill="#cab2d3"/><rect x="473.33" y="59.17" width="59.17" height="59.17" fill="#9eaef2"/><path d="M 473.33 118.34 A 59.17 59.17 0 0 0 532.5 59.17 L 473.33 59.17" fill="#98a9f2"/><rect x="532.5" y="59.166666666666664" width="59.166666666666664" height="59.166666666666664" fill="#ffffff"/><rect x="532.5" y="59.17" width="29.58" height="29.58" fill="#abb9f4"/><path d="M 532.5 88.75 A 29.58 29.58 0 0 1  562.08 59.17 L 562.08 88.75" fill="#8297ef"/><rect x="562.08" y="59.17" width="29.58" height="29.58" fill="#ebeefc"/><path d="M 562.08 59.17 A 29.58 29.58 0 0 1 591.6600000000001 88.75 L 562.08 88.75" fill="#c1a5cc"/><rect x="532.5" y="88.75" width="29.58" height="29.58" fill="#f6f1f7"/><path d="M 532.5 88.75 A 29.58 29.58 0 0 0 562.08 118.33 L 562.08 88.75" fill="#6982ec"/><rect x="562.08" y="88.75" width="29.58" height="29.58" fill="#2e51e4"/><path d="M 562.08 118.33 A 29.58 29.58 0 0 0 591.6600000000001 88.75 L 562.08 88.75" fill="#b7c3f6"/><rect x="591.6666666666666" y="59.166666666666664" width="59.166666666666664" height="59.166666666666664" fill="#ffffff"/><rect x="591.67" y="59.17" width="29.58" height="29.58" fill="#2a4ee3"/><polygon points="621.25,59.17 621.25,88.75 591.67,88.75" fill="#d6c4dd"/><rect x="621.25" y="59.17" width="29.58" height="29.58" fill="#d3beda"/><polygon points="621.25,59.17 650.83,88.75 621.25,88.75" fill="#ccd5f8"/><rect x="591.67" y="88.75" width="29.58" height="29.58" fill="#a4b3f3"/><polygon points="591.67,88.75 621.25,88.75 591.67,118.33" fill="#4968e7"/><rect x="621.25" y="88.75" width="29.58" height="29.58" fill="#cad3f8"/><polygon points="621.25,88.75 650.83,88.75 650.83,118.33" fill="#9cadf2"/><rect x="0" y="118.33333333333333" width="59.166666666666664" height="59.166666666666664" fill="#ffffff"/><rect x="0" y="118.33" width="29.58" height="29.58" fill="#254ae3"/><circle cx="14.79" cy="133.12" r="14.79" fill="#778eed"/><rect x="29.58" y="118.33" width="29.58" height="29.58" fill="#b897c4"/><rect x="29.58" y="118.33" width="29.58" height="29.58" fill="#8ea1f0"/><rect x="0" y="147.92" width="29.58" height="29.58" fill="#d4dbf9"/><circle cx="14.79" cy="162.70999999999998" r="14.79" fill="#c1a4cb"/><rect x="29.58" y="147.92" width="29.58" height="29.58" fill="#a6b5f3"/><rect x="29.58" y="147.92" width="29.58" height="29.58" fill="#6680eb"/><rect x="59.17" y="118.33" width="59.17" height="59.17" fill="#e6dbea"/><path d="M 59.17 118.33 A 59.17 59.17 0 0 1  118.34 177.5 L 59.17 118.33 A 59.17 59.17 0 0 0 118.34 177.5" fill="#eae1ee"/><rect x="118.33333333333333" y="118.33333333333333" width="59.166666666666664" height="59.166666666666664" fill="#ffffff"/><rect x="118.33" y="118.33" width="29.58" height="29.58" fill="#cfbad7"/><polygon points="147.91,118.33 147.91,147.91 118.33,147.91" fill="#cad3f8"/><rect x="147.92" y="118.33" width="29.58" height="29.58" fill="#d9dffa"/><polygon points="147.92,118.33 177.5,147.91 147.92,147.91" fill="#f1eaf3"/><rect x="118.33" y="147.92" width="29.58" height="29.58" fill="#9daef2"/><polygon points="118.33,147.92 147.91,147.92 118.33,177.5" fill="#ecf0fd"/><rect x="147.92" y="147.92" width="29.58" height="29.58" fill="#a880b7"/><polygon points="147.92,147.92 177.5,147.92 177.5,177.5" fill="#9faff3"/><rect x="177.5" y="118.33333333333333" width="59.166666666666664" height="59.166666666666664" fill="#ffffff"/><rect x="177.5" y="118.33" width="29.58" height="29.58" fill="#fdfcfd"/><path d="M 177.5 147.91 A 29.58 29.58 0 0 1  207.07999999999998 118.33 L 207.07999999999998 147.91" fill="#395ae5"/><rect x="207.08" y="118.33" width="29.58" height="29.58" fill="#d6ddfa"/><path d="M 207.08 118.33 A 29.58 29.58 0 0 1 236.66000000000003 147.91 L 207.08 147.91" fill="#b593c2"/><rect x="177.5" y="147.92" width="29.58" height="29.58" fill="#c9b1d2"/><path d="M 177.5 147.92 A 29.58 29.58 0 0 0 207.07999999999998 177.5 L 207.07999999999998 147.92" fill="#4363e7"/><rect x="207.08" y="147.92" width="29.58" height="29.58" fill="#b18dbe"/><path d="M 207.08 177.5 A 29.58 29.58 0 0 0 236.66000000000003 147.92 L 207.08 147.92" fill="#decfe4"/><rect x="236.67" y="118.33" width="59.17" height="59.17" fill="#e1d3e6"/><path d="M 236.67 177.5 A 59.17 59.17 0 0 1  295.84 118.33 L 236.67 177.5 A 59.17 59.17 0 0 0 295.84 118.33" fill="#5572e9"/><rect x="295.8333333333333" y="118.33333333333333" width="59.166666666666664" height="59.166666666666664" fill="#ffffff"/><rect x="295.83" y="118.33" width="29.58" height="29.58" fill="#b6c2f6"/><path d="M 295.83 147.91 A 29.58 29.58 0 0 1 325.40999999999997 118.33 L 325.40999999999997 125.725 A 22.185 22.185 0 0 0 303.22499999999997 147.91" fill="#bb9cc6"/><rect x="325.42" y="118.33" width="29.58" height="29.58" fill="#c1a5cb"/><path d="M 325.42 118.33 A 29.58 29.58 0 0 1 355 147.91 L 347.605 147.91 A 22.185 22.185 0 0 0 325.42 125.725" fill="#f0e9f3"/><rect x="295.83" y="147.92" width="29.58" height="29.58" fill="#274be3"/><path d="M 295.83 147.92 A 29.58 29.58 0 0 0 325.40999999999997 177.5 L 325.40999999999997 170.105 A 22.185 22.185 0 0 1 303.22499999999997 147.92" fill="#e2e7fb"/><rect x="325.42" y="147.92" width="29.58" height="29.58" fill="#ccd4f8"/><path d="M 325.42 177.5 A 29.58 29.58 0 0 0 355 147.92 L 347.605 147.92 A 22.185 22.185 0 0 1 325.42 170.105" fill="#6a83ec"/><rect x="355" y="118.33" width="59.17" height="59.17" fill="#91a4f1"/><path d="M 355 177.5 A 59.17 59.17 0 0 1  414.17 118.33 L 414.17 177.5" fill="#3254e4"/><rect x="414.17" y="118.33" width="59.17" height="59.17" fill="#f7f3f8"/><polygon points="414.17,118.33 473.34000000000003,118.33 414.17,177.5" fill="#2348e2"/><rect x="473.3333333333333" y="118.33333333333333" width="59.166666666666664" height="59.166666666666664" fill="#ffffff"/><rect x="473.33" y="118.33" width="29.58" height="29.58" fill="#2247e2"/><polygon points="502.90999999999997,118.33 502.90999999999997,147.91 473.33,147.91" fill="#b796c3"/><rect x="502.92" y="118.33" width="29.58" height="29.58" fill="#dac9e0"/><polygon points="502.92,118.33 532.5,118.33 502.92,147.91" fill="#e8ddec"/><rect x="473.33" y="147.92" width="29.58" height="29.58" fill="#ceb7d6"/><polygon points="473.33,147.92 502.90999999999997,147.92 502.90999999999997,177.5" fill="#fcfbfd"/><rect x="502.92" y="147.92" width="29.58" height="29.58" fill="#b999c5"/><polygon points="502.92,147.92 532.5,177.5 502.92,177.5" fill="#4060e6"/><rect x="532.5" y="118.33333333333333" width="59.166666666666664" height="59.166666666666664" fill="#ffffff"/><rect x="532.5" y="118.33" width="29.58" height="29.58" fill="#c0cbf7"/><path d="M 532.5 118.33 A 29.58 29.58 0 0 1 562.08 147.91 L 532.5 147.91" fill="#ede5f0"/><rect x="562.08" y="118.33" width="29.58" height="29.58" fill="#ebe2ee"/><path d="M 562.08 147.91 A 29.58 29.58 0 0 1  591.6600000000001 118.33 L 591.6600000000001 147.91" fill="#2247e2"/><rect x="532.5" y="147.92" width="29.58" height="29.58" fill="#e4d7e8"/><path d="M 532.5 177.5 A 29.58 29.58 0 0 0 562.08 147.92 L 532.5 147.92" fill="#90a2f1"/><rect x="562.08" y="147.92" width="29.58" height="29.58" fill="#284ce3"/><path d="M 562.08 147.92 A 29.58 29.58 0 0 0 591.6600000000001 177.5 L 591.6600000000001 147.92" fill="#c2cdf7"/><rect x="591.67" y="118.33" width="59.17" height="59.17" fill="#9fb0f3"/><polygon points="591.67,118.33 650.8399999999999,118.33 591.67,177.5" fill="#ac86ba"/><rect x="0" y="177.5" width="59.17" height="59.17" fill="#bc9ec8"/><path d="M 0 236.67000000000002 A 59.17 59.17 0 0 1  59.17 177.5 L 59.17 236.67000000000002" fill="#90a3f1"/><rect x="59.17" y="177.5" width="59.17" height="59.17" fill="#e1d4e6"/><rect x="59.17" y="177.5" width="59.17" height="59.17" fill="#99aaf2"/><rect x="118.33333333333333" y="177.5" width="59.166666666666664" height="59.166666666666664" fill="#ffffff"/><rect x="118.33" y="177.5" width="29.58" height="29.58" fill="#bec9f7"/><path d="M 118.33 207.07999999999998 A 29.58 29.58 0 0 0 147.91 177.5 L 118.33 177.5" fill="#b18dbe"/><rect x="147.92" y="177.5" width="29.58" height="29.58" fill="#778eed"/><path d="M 147.92 177.5 A 29.58 29.58 0 0 0 177.5 207.07999999999998 L 177.5 177.5" fill="#d2bdd9"/><rect x="118.33" y="207.08" width="29.58" height="29.58" fill="#cbb3d4"/><path d="M 118.33 207.08 A 29.58 29.58 0 0 1 147.91 236.66000000000003 L 118.33 236.66000000000003" fill="#b18dbe"/><rect x="147.92" y="207.08" width="29.58" height="29.58" fill="#c5cff8"/><path d="M 147.92 236.66000000000003 A 29.58 29.58 0 0 1  177.5 207.08 L 177.5 236.66000000000003" fill="#e8deec"/><rect x="177.5" y="177.5" width="59.17" height="59.17" fill="#eae0ed"/><rect x="177.5" y="177.5" width="59.17" height="59.17" fill="#dbe1fa"/><rect x="236.67" y="177.5" width="59.17" height="59.17" fill="#c0a4cb"/><rect x="236.67" y="177.5" width="59.17" height="59.17" fill="#e7dbeb"/><rect x="295.83" y="177.5" width="59.17" height="59.17" fill="#f9f6fa"/><polygon points="295.83,177.5 355,177.5 295.83,236.67000000000002" fill="#6b84ec"/><rect x="355" y="177.5" width="59.166666666666664" height="59.166666666666664" fill="#ffffff"/><rect x="355" y="177.5" width="29.58" height="29.58" fill="#c8aed1"/><path d="M 355 177.5 A 29.58 29.58 0 0 1 384.58 207.07999999999998 L 355 207.07999999999998" fill="#b18cbe"/><rect x="384.58" y="177.5" width="29.58" height="29.58" fill="#f7f9fe"/><path d="M 384.58 207.07999999999998 A 29.58 29.58 0 0 1  414.15999999999997 177.5 L 414.15999999999997 207.07999999999998" fill="#dde2fb"/><rect x="355" y="207.08" width="29.58" height="29.58" fill="#ece4ef"/><path d="M 355 236.66000000000003 A 29.58 29.58 0 0 0 384.58 207.08 L 355 207.08" fill="#c7acd0"/><rect x="384.58" y="207.08" width="29.58" height="29.58" fill="#3f60e6"/><path d="M 384.58 207.08 A 29.58 29.58 0 0 0 414.15999999999997 236.66000000000003 L 414.15999999999997 207.08" fill="#e7dceb"/><rect x="414.16666666666663" y="177.5" width="59.166666666666664" height="59.166666666666664" fill="#ffffff"/><rect x="414.17" y="177.5" width="29.58" height="29.58" fill="#b0bdf5"/><polygon points="443.75,177.5 443.75,207.07999999999998 414.17,207.07999999999998" fill="#b795c3"/><rect x="443.75" y="177.5" width="29.58" height="29.58" fill="#859aef"/><polygon points="443.75,177.5 473.33,177.5 443.75,207.07999999999998" fill="#d3beda"/><rect x="414.17" y="207.08" width="29.58" height="29.58" fill="#c6abcf"/><polygon points="414.17,207.08 443.75,207.08 443.75,236.66000000000003" fill="#7a90ee"/><rect x="443.75" y="207.08" width="29.58" height="29.58" fill="#4867e7"/><polygon points="443.75,207.08 473.33,236.66000000000003 443.75,236.66000000000003" fill="#d3beda"/><rect x="473.33" y="177.5" width="59.17" height="59.17" fill="#3255e4"/><path d="M 473.33 177.5 A 59.17 59.17 0 0 1 532.5 236.67000000000002 L 473.33 236.67000000000002" fill="#e8deec"/><rect x="532.5" y="177.5" width="59.17" height="59.17" fill="#fffeff"/><rect x="532.5" y="177.5" width="59.17" height="59.17" fill="#dee4fb"/><rect x="591.67" y="177.5" width="59.17" height="59.17" fill="#6882eb"/><path d="M 591.67 236.67000000000002 A 59.17 59.17 0 0 1  650.8399999999999 177.5 L 591.67 236.67000000000002 A 59.17 59.17 0 0 0 650.8399999999999 177.5" fill="#1f45e2"/><rect x="0" y="236.67" width="59.17" height="59.17" fill="#cfb9d7"/><rect x="0" y="236.67" width="59.17" height="59.17" fill="#627deb"/><rect x="59.17" y="236.67" width="59.17" height="59.17" fill="#6781eb"/><path d="M 59.17 295.84 A 59.17 59.17 0 0 0 118.34 236.67 L 59.17 236.67" fill="#fdfcfd"/><rect x="118.33333333333333" y="236.66666666666666" width="59.166666666666664" height="59.166666666666664" fill="#ffffff"/><rect x="118.33" y="236.67" width="29.58" height="29.58" fill="#e5d8e9"/><path d="M 118.33 266.25 A 29.58 29.58 0 0 1 147.91 236.67 L 147.91 244.065 A 22.185 22.185 0 0 0 125.725 266.25" fill="#e4d7e8"/><rect x="147.92" y="236.67" width="29.58" height="29.58" fill="#e2e7fb"/><path d="M 147.92 236.67 A 29.58 29.58 0 0 1 177.5 266.25 L 170.105 266.25 A 22.185 22.185 0 0 0 147.92 244.065" fill="#d0d8f9"/><rect x="118.33" y="266.25" width="29.58" height="29.58" fill="#aebbf4"/><path d="M 118.33 266.25 A 29.58 29.58 0 0 0 147.91 295.83 L 147.91 288.435 A 22.185 22.185 0 0 1 125.725 266.25" fill="#254ae3"/><rect x="147.92" y="266.25" width="29.58" height="29.58" fill="#b999c5"/><path d="M 147.92 295.83 A 29.58 29.58 0 0 0 177.5 266.25 L 170.105 266.25 A 22.185 22.185 0 0 1 147.92 288.435" fill="#a9b8f4"/><rect x="177.5" y="236.67" width="59.17" height="59.17" fill="#bfa2ca"/><path d="M 177.5 295.84 A 59.17 59.17 0 0 1  236.67000000000002 236.67 L 177.5 295.84 A 59.17 59.17 0 0 0 236.67000000000002 236.67" fill="#d8c5de"/><rect x="236.67" y="236.67" width="59.17" height="59.17" fill="#f4eff6"/><path d="M 236.67 295.84 A 59.17 59.17 0 0 1  295.84 236.67 L 295.84 295.84" fill="#f9f7fa"/><rect x="295.83" y="236.67" width="59.17" height="59.17" fill="#f1eaf3"/><rect x="295.83" y="236.67" width="59.17" height="59.17" fill="#b28ebf"/><rect x="355" y="236.67" width="59.17" height="59.17" fill="#9eaef2"/><rect x="355" y="236.67" width="59.17" height="59.17" fill="#d5dcfa"/><rect x="414.17" y="236.67" width="59.17" height="59.17" fill="#f8f5f9"/><path d="M 414.17 236.67 A 59.17 59.17 0 0 0 473.34000000000003 295.84 L 473.34000000000003 236.67" fill="#bcc8f6"/><rect x="473.3333333333333" y="236.66666666666666" width="59.166666666666664" height="59.166666666666664" fill="#ffffff"/><rect x="473.33" y="236.67" width="29.58" height="29.58" fill="#f3eef5"/><polygon points="502.90999999999997,236.67 502.90999999999997,266.25 473.33,266.25" fill="#889cef"/><rect x="502.92" y="236.67" width="29.58" height="29.58" fill="#a2b1f3"/><polygon points="502.92,236.67 532.5,236.67 502.92,266.25" fill="#c3a7cd"/><rect x="473.33" y="266.25" width="29.58" height="29.58" fill="#dccce2"/><polygon points="473.33,266.25 502.90999999999997,266.25 502.90999999999997,295.83" fill="#8da1f0"/><rect x="502.92" y="266.25" width="29.58" height="29.58" fill="#d9c8e0"/><polygon points="502.92,266.25 532.5,295.83 502.92,295.83" fill="#f0f2fd"/><rect x="532.5" y="236.67" width="59.17" height="59.17" fill="#b2bff5"/><polygon points="532.5,236.67 591.67,236.67 591.67,295.84" fill="#fefdfe"/><rect x="591.6666666666666" y="236.66666666666666" width="59.166666666666664" height="59.166666666666664" fill="#ffffff"/><rect x="591.67" y="236.67" width="29.58" height="29.58" fill="#b390c0"/><path d="M 591.67 266.25 A 29.58 29.58 0 0 0 621.25 236.67 L 591.67 236.67" fill="#516fe8"/><rect x="621.25" y="236.67" width="29.58" height="29.58" fill="#f6f2f8"/><path d="M 621.25 236.67 A 29.58 29.58 0 0 0 650.83 266.25 L 650.83 236.67" fill="#f7f3f8"/><rect x="591.67" y="266.25" width="29.58" height="29.58" fill="#e6daea"/><path d="M 591.67 266.25 A 29.58 29.58 0 0 1 621.25 295.83 L 591.67 295.83" fill="#c8d2f8"/><rect x="621.25" y="266.25" width="29.58" height="29.58" fill="#f5f1f7"/><path d="M 621.25 295.83 A 29.58 29.58 0 0 1  650.83 266.25 L 650.83 295.83" fill="#e4d8e9"/><rect x="0" y="295.8333333333333" width="59.166666666666664" height="59.166666666666664" fill="#ffffff"/><rect x="0" y="295.83" width="29.58" height="29.58" fill="#a77fb6"/><circle cx="14.79" cy="310.62" r="14.79" fill="#b897c4"/><rect x="29.58" y="295.83" width="29.58" height="29.58" fill="#c2a6cc"/><rect x="29.58" y="295.83" width="29.58" height="29.58" fill="#fcfdff"/><rect x="0" y="325.42" width="29.58" height="29.58" fill="#ae88bb"/><circle cx="14.79" cy="340.21000000000004" r="14.79" fill="#c8aed1"/><rect x="29.58" y="325.42" width="29.58" height="29.58" fill="#5e7aea"/><rect x="29.58" y="325.42" width="29.58" height="29.58" fill="#f7f3f8"/><rect x="59.166666666666664" y="295.8333333333333" width="59.166666666666664" height="59.166666666666664" fill="#ffffff"/><rect x="59.17" y="295.83" width="29.58" height="29.58" fill="#e9dfed"/><polygon points="88.75,295.83 88.75,325.40999999999997 59.17,325.40999999999997" fill="#abb9f4"/><rect x="88.75" y="295.83" width="29.58" height="29.58" fill="#94a6f1"/><polygon points="88.75,295.83 118.33,325.40999999999997 88.75,325.40999999999997" fill="#d9c7df"/><rect x="59.17" y="325.42" width="29.58" height="29.58" fill="#fefeff"/><polygon points="59.17,325.42 88.75,325.42 88.75,355" fill="#e9edfc"/><rect x="88.75" y="325.42" width="29.58" height="29.58" fill="#c4a9ce"/><polygon points="88.75,325.42 118.33,325.42 88.75,355" fill="#3154e4"/><rect x="118.33" y="295.83" width="59.17" height="59.17" fill="#b999c5"/><polygon points="118.33,295.83 177.5,295.83 118.33,355" fill="#d7c4dd"/><rect x="177.5" y="295.8333333333333" width="59.166666666666664" height="59.166666666666664" fill="#ffffff"/><rect x="177.5" y="295.83" width="29.58" height="29.58" fill="#bdc8f6"/><path d="M 177.5 325.40999999999997 A 29.58 29.58 0 0 0 207.07999999999998 295.83 L 177.5 295.83" fill="#cab1d3"/><rect x="207.08" y="295.83" width="29.58" height="29.58" fill="#d2bdd9"/><path d="M 207.08 295.83 A 29.58 29.58 0 0 0 236.66000000000003 325.40999999999997 L 236.66000000000003 295.83" fill="#bfa1ca"/><rect x="177.5" y="325.42" width="29.58" height="29.58" fill="#1e44e2"/><path d="M 177.5 325.42 A 29.58 29.58 0 0 1 207.07999999999998 355 L 177.5 355" fill="#c6d0f8"/><rect x="207.08" y="325.42" width="29.58" height="29.58" fill="#f8f5f9"/><path d="M 207.08 355 A 29.58 29.58 0 0 1  236.66000000000003 325.42 L 236.66000000000003 355" fill="#ceb7d6"/><rect x="236.67" y="295.83" width="59.17" height="59.17" fill="#b6c2f6"/><polygon points="236.67,295.83 295.84,355 236.67,355" fill="#2549e3"/><rect x="295.83" y="295.83" width="59.17" height="59.17" fill="#e5d8e9"/><polygon points="355,295.83 355,355 295.83,355" fill="#d8c6de"/><rect x="355" y="295.83" width="59.17" height="59.17" fill="#fbf8fb"/><path d="M 355 355 A 59.17 59.17 0 0 0 414.17 295.83 L 355 295.83" fill="#e5d9e9"/><rect x="414.17" y="295.83" width="59.17" height="59.17" fill="#d3bfdb"/><rect x="414.17" y="295.83" width="59.17" height="59.17" fill="#f4f6fe"/><rect x="473.3333333333333" y="295.8333333333333" width="59.166666666666664" height="59.166666666666664" fill="#ffffff"/><rect x="473.33" y="295.83" width="29.58" height="29.58" fill="#506ee8"/><circle cx="488.12" cy="310.62" r="14.79" fill="#d4c0db"/><rect x="502.92" y="295.83" width="29.58" height="29.58" fill="#a2b2f3"/><rect x="502.92" y="295.83" width="29.58" height="29.58" fill="#284de3"/><rect x="473.33" y="325.42" width="29.58" height="29.58" fill="#f2ecf4"/><circle cx="488.12" cy="340.21000000000004" r="14.79" fill="#859aef"/><rect x="502.92" y="325.42" width="29.58" height="29.58" fill="#f6f8fe"/><rect x="502.92" y="325.42" width="29.58" height="29.58" fill="#eae0ee"/><rect x="532.5" y="295.83" width="59.17" height="59.17" fill="#e2e7fb"/><rect x="532.5" y="295.83" width="59.17" height="59.17" fill="#eae0ee"/><rect x="591.67" y="295.83" width="59.17" height="59.17" fill="#f4f0f6"/><path d="M 591.67 295.83 A 59.17 59.17 0 0 1 650.8399999999999 355 L 591.67 355" fill="#516fe8"/></g></svg>